<svg height="512pt" viewBox="-20 0 512 512" width="512pt" xmlns="http://www.w3.org/2000/svg"><path d="m462.453125 512h-452.453125c-5.523438 0-10-4.476562-10-10v-492c0-5.523438 4.476562-10 10-10h276.273438c5.523437 0 10 4.476562 10 10s-4.476563 10-10 10h-266.273438v472h432.453125v-472h-60.070313c-5.523437 0-10-4.476562-10-10s4.476563-10 10-10h70.070313c5.523437 0 10 4.476562 10 10v492c0 5.523438-4.476563 10-10 10zm0 0"/><path d="m339.328125 20c-.648437 0-1.3125-.058594-1.949219-.191406-.640625-.128906-1.273437-.328125-1.871094-.578125-.609374-.25-1.191406-.558594-1.730468-.921875-.550782-.359375-1.058594-.777344-1.519532-1.238282-1.859374-1.859374-2.929687-4.441406-2.929687-7.070312 0-.648438.070313-1.3125.199219-1.949219.128906-.640625.320312-1.269531.570312-1.871093.25-.609376.558594-1.1875.917969-1.730469.359375-.550781.78125-1.058594 1.242187-1.519531.460938-.460938.96875-.878907 1.519532-1.238282.539062-.359375 1.121094-.671875 1.730468-.921875.597657-.25 1.226563-.4375 1.867188-.570312 1.289062-.2578128 2.621094-.2578128 3.910156 0 .628906.132812 1.261719.320312 1.871094.570312.601562.25 1.179688.5625 1.71875.921875.550781.359375 1.0625.777344 1.519531 1.238282.460938.460937.882813.96875 1.25 1.519531.363281.542969.671875 1.121093.921875 1.730469.25.601562.441406 1.230468.570313 1.871093.128906.640625.1875 1.300781.1875 1.949219 0 2.628906-1.066407 5.210938-2.929688 7.070312-.460937.457032-.96875.878907-1.519531 1.238282-.539062.359375-1.117188.671875-1.71875.921875-.609375.25-1.242188.449219-1.871094.578125-.648437.132812-1.308594.191406-1.957031.191406zm0 0"/><path d="m412.769531 226.878906c-.882812 0-1.753906.035156-2.613281.113282-4.238281-26.542969-14.472656-51.136719-30.539062-73.371094.703124-.582032 1.382812-1.203125 2.039062-1.855469 11.351562-11.355469 11.351562-29.832031-.003906-41.1875-11.351563-11.355469-29.832032-11.355469-41.1875 0-.652344.65625-1.273438 1.335937-1.855469 2.039063-22.234375-16.066407-46.828125-26.300782-73.375-30.539063.078125-.859375.117187-1.730469.117187-2.609375 0-16.0625-13.066406-29.125-29.125-29.125-16.058593 0-29.125 13.0625-29.125 29.125 0 .882812.042969 1.761719.121094 2.628906-26.207031 4.257813-50.679687 14.640625-73.011718 30.96875-.6875-.863281-1.429688-1.695312-2.222657-2.488281-11.355469-11.351563-29.832031-11.351563-41.1875 0-11.355469 11.355469-11.355469 29.832031 0 41.1875.792969.792969 1.621094 1.535156 2.484375 2.222656-16.328125 22.332031-26.710937 46.804688-30.96875 73.007813-.867187-.078125-1.742187-.117188-2.628906-.117188-16.058594 0-29.125 13.0625-29.125 29.121094s13.066406 29.121094 29.125 29.121094c.886719 0 1.761719-.039063 2.628906-.117188 4.257813 26.203125 14.640625 50.675782 30.96875 73.007813-.863281.6875-1.691406 1.429687-2.484375 2.222656-11.355469 11.355469-11.355469 29.832031 0 41.1875 5.679688 5.679687 13.136719 8.515625 20.59375 8.515625s14.917969-2.839844 20.59375-8.515625c.792969-.792969 1.535157-1.625 2.222657-2.488281 22.332031 16.328125 46.808593 26.710937 73.011718 30.972656-.078125.863281-.117187 1.742188-.117187 2.628906 0 16.058594 13.0625 29.121094 29.121093 29.121094 16.058594 0 29.125-13.0625 29.125-29.121094 0-.886718-.039062-1.765625-.117187-2.628906 26.203125-4.261719 50.679687-14.644531 73.007813-30.972656.691406.863281 1.433593 1.695312 2.226562 2.488281 5.675781 5.675781 13.132812 8.515625 20.59375 8.515625 7.457031 0 14.914062-2.839844 20.59375-8.515625 11.355469-11.355469 11.355469-29.832031 0-41.1875-.792969-.792969-1.625-1.535156-2.488281-2.222656 16.328125-22.332031 26.710937-46.804688 30.972656-73.003907.863281.078126 1.742187.117188 2.628906.117188 16.058594 0 29.121094-13.066406 29.121094-29.125s-13.0625-29.121094-29.121094-29.121094zm-59.988281 126.011719c-1.753906-13.304687-7.300781-37.300781-24.789062-55.050781 17.398437-2.953125 32.445312-10.152344 42.925781-16.421875 7.03125-4.207031 12.632812-8.347657 16.363281-11.332031 1.113281 2.003906 2.453125 3.859374 3.988281 5.539062-3.316406 27.601562-14.234375 53.191406-32.507812 76.167969-2.042969.160156-4.046875.527343-5.980469 1.097656zm-239.085938-1.097656c-18.273437-22.976563-29.195312-48.566407-32.507812-76.167969 1.546875-1.695312 2.898438-3.574219 4.015625-5.601562 3.75 2.988281 9.351563 7.125 16.320313 11.308593 10.488281 6.292969 25.535156 13.519531 42.90625 16.488281-13.058594 13.292969-19.34375 30.140626-22.324219 41.988282-1.269531 5.054687-2.039063 9.5625-2.503907 13.058594-1.910156-.554688-3.886718-.917969-5.90625-1.074219zm5.976563-192.683594c1.753906 13.296875 7.289063 37.28125 24.734375 55.0625-17.375 2.957031-32.402344 10.148437-42.871094 16.410156-7.03125 4.207031-12.632812 8.347657-16.363281 11.332031-1.113281-2.003906-2.453125-3.859374-3.984375-5.539062 3.3125-27.601562 14.234375-53.191406 32.507812-76.167969 2.042969-.160156 4.042969-.527343 5.976563-1.097656zm239.917969 1.152344c17.730468 22.691406 28.375 48.253906 31.679687 76.109375-1.550781 1.695312-2.902343 3.578125-4.023437 5.605468-3.746094-2.988281-9.347656-7.125-16.316406-11.308593-10.480469-6.289063-25.507813-13.507813-42.859376-16.484375 17.523438-17.886719 23.03125-41.886719 24.757813-55.0625 2.179687.640625 4.445313 1.023437 6.761719 1.140625zm-123.398438 232.238281c-8.71875-11.367188-23.171875-34.214844-23.171875-60.648438 0-6.546874.90625-13.257812 2.703125-20.082031.039063-.128906.074219-.257812.109375-.386719 1.0625-3.957031 2.425781-7.960937 4.074219-11.980468 5.078125 1.917968 10.578125 2.964844 16.320312 2.964844 5.753907 0 11.265626-1.054688 16.355469-2.976563 1.648438 4.039063 3.011719 8.0625 4.070313 12.042969.035156.128906.070312.257812.109375.382812 1.777343 6.804688 2.671875 13.496094 2.671875 20.03125 0 26.3125-14.457032 49.191406-23.242188 60.652344zm-39.589844-86.757812c-3.613281 11.292968-8.957031 20.53125-15.886718 27.460937-12.363282 12.363281-29.714844 17.15625-40.738282 19.011719 1.847657-10.957032 6.644532-28.308594 19.042969-40.703125 6.910157-6.910157 16.148438-12.238281 27.457031-15.839844.210938-.070313.417969-.144531.621094-.222656 4.976563-1.382813 9.976563-3.140625 14.988282-5.277344-2.175782 5.085937-3.960938 10.15625-5.355469 15.207031-.042969.117188-.085938.242188-.128907.363282zm39.660157-186.242188c8.71875 11.367188 23.171875 34.214844 23.171875 60.648438 0 6.359374-.855469 12.871093-2.546875 19.496093-.039063.125-.078125.253907-.109375.378907-1.082032 4.152343-2.5 8.355468-4.230469 12.574218-5.078125-1.917968-10.578125-2.964844-16.320313-2.964844-5.753906 0-11.265624 1.050782-16.355468 2.976563-1.636719-4.003906-2.988282-8-4.042969-11.945313-.035156-.136718-.074219-.269531-.117187-.398437-1.789063-6.832031-2.691407-13.554687-2.691407-20.117187 0-26.308594 14.460938-49.1875 23.242188-60.648438zm55.390625 59.332031c12.394531-12.390625 29.789062-17.195312 40.828125-19.046875-1.84375 10.972656-6.652344 28.363282-19.082031 40.792969-6.757813 6.761719-15.75 12.015625-26.722657 15.617187-5.414062 1.429688-10.851562 3.308594-16.308593 5.632813 2.375-5.550781 4.289062-11.089844 5.730468-16.59375 3.617188-10.8125 8.847656-19.695313 15.554688-26.402344zm-70.050782 99.097657-7.285156-7.273438c-2.816406-4.191406-4.460937-9.234375-4.460937-14.65625 0-5.40625 1.636719-10.4375 4.4375-14.625l7.273437-7.28125c4.195313-2.816406 9.238282-4.460938 14.660156-4.460938 5.40625 0 10.4375 1.636719 14.628907 4.4375l7.28125 7.273438c2.816406 4.191406 4.460937 9.234375 4.460937 14.65625 0 5.40625-1.636718 10.4375-4.4375 14.625l-7.273437 7.28125c-4.195313 2.816406-9.238281 4.460938-14.660157 4.460938-5.40625 0-10.4375-1.636719-14.625-4.4375zm-25.003906-71.652344c.03125.101562.0625.203125.097656.300781 1.394532 5.074219 3.183594 10.171875 5.359376 15.28125-5.238282-2.238281-10.460938-4.066406-15.660157-5.476563-11.246093-3.617187-20.453125-8.953124-27.363281-15.863281-12.375-12.371093-17.171875-29.738281-19.023438-40.765625 10.964844 1.847656 28.328126 6.644532 40.738282 19.058594 6.914062 6.910156 12.246094 16.152344 15.851562 27.464844zm-36.222656 26.515625c6.558594 0 13.277344.910156 20.113281 2.710937.125.039063.25.074219.378907.109375 3.949218 1.0625 7.945312 2.421875 11.953124 4.070313-1.914062 5.078125-2.964843 10.574218-2.964843 16.316406 0 5.753906 1.054687 11.265625 2.980469 16.351562-4.015626 1.640626-8.015626 2.996094-11.972657 4.050782-.136719.039062-.269531.078125-.402343.117187-6.820313 1.785157-13.53125 2.683594-20.085938 2.683594-26.3125 0-49.191406-14.457031-60.652344-23.238281 11.367188-8.71875 34.214844-23.171875 60.652344-23.171875zm115.640625 73.039062c-.136719-.429687-.300781-.847656-.492187-1.246093-1.355469-4.800782-3.066407-9.617188-5.125-14.445313 4.871093 2.082031 9.730468 3.808594 14.566406 5.175781.351562.160156.714844.300782 1.09375.421875 11.269531 3.609375 20.496094 8.945313 27.410156 15.859375 12.335938 12.335938 17.125 29.644532 18.976562 40.644532-10.9375-1.84375-28.246093-6.636719-40.617187-19.007813-6.898437-6.894531-12.21875-16.117187-15.8125-27.402344zm36.0625-26.625c-6.519531 0-13.207031-.898437-20.007813-2.683593-.125-.039063-.253906-.078126-.382812-.113282-3.984375-1.0625-8.011719-2.433594-12.054688-4.09375 1.914063-5.078125 2.964844-10.578125 2.964844-16.316406 0-5.753906-1.054687-11.265625-2.980468-16.355469 4.105468-1.675781 8.199218-3.054687 12.242187-4.121093.140625-.035157.277344-.074219.414063-.117188 6.726562-1.738281 13.34375-2.609375 19.804687-2.609375 26.316406 0 49.195313 14.457031 60.65625 23.238281-11.367187 8.71875-34.214844 23.171875-60.65625 23.171875zm21.039063-139.773437c-3.507813.46875-8.019532 1.238281-13.050782 2.496094-11.875 2.964843-28.730468 9.226562-42.015625 22.226562-2.957031-17.359375-10.144531-32.378906-16.40625-42.84375-4.207031-7.027344-8.347656-12.628906-11.332031-16.363281 2.003906-1.109375 3.863281-2.449219 5.542969-3.984375 27.859375 3.304687 53.425781 13.949218 76.117187 31.679687.117188 2.328125.503906 4.601563 1.144532 6.789063zm-110.917969-34.449219c-2.984375 3.75-7.121094 9.351563-11.304688 16.316406-6.292969 10.484375-13.515625 25.527344-16.488281 42.890625-17.875-17.546875-41.886719-23.054687-55.0625-24.785156.5625-1.917969.925781-3.902344 1.085938-5.933594 22.976562-18.273437 48.566406-29.195312 76.171874-32.507812 1.695313 1.550781 3.574219 2.902344 5.597657 4.019531zm-82.863281 267.582031c3.503906-.46875 8.003906-1.234375 13.019531-2.488281 11.882812-2.96875 28.757812-9.238281 42.039062-22.277344 2.957031 17.378907 10.148438 32.414063 16.414063 42.886719 4.207031 7.027344 8.347656 12.628906 11.332031 16.363281-2.003906 1.109375-3.863281 2.449219-5.539063 3.984375-27.605468-3.3125-53.195312-14.234375-76.171874-32.507812-.160157-2.039063-.527344-4.035156-1.09375-5.960938zm110.917968 34.449219c2.984375-3.75 7.125-9.351563 11.304688-16.316406 6.300781-10.496094 13.535156-25.5625 16.5-42.949219 17.847656 17.589844 41.867187 23.113281 55.050781 24.84375-.5625 1.917969-.925781 3.90625-1.085937 5.933594-22.976563 18.273437-48.566407 29.195312-76.171876 32.507812-1.695312-1.550781-3.574218-2.902344-5.597656-4.019531zm110.804688-284.960937c2.339844 0 4.675781.886718 6.453125 2.664062 3.558593 3.558594 3.558593 9.347656 0 12.902344-1.328125 1.328125-2.992188 2.195312-4.796875 2.527344-.101563.011718-.207032.03125-.308594.050781-.441406.0625-.890625.097656-1.347656.097656-2.433594 0-4.726563-.949219-6.449219-2.675781-1.722656-1.722656-2.671875-4.011719-2.671875-6.449219 0-.472656.035156-.941406.105469-1.402344.011719-.0625.023437-.128906.03125-.191406.320312-1.832031 1.195312-3.515625 2.535156-4.855469 1.777344-1.78125 4.113281-2.667968 6.449219-2.667968zm-124.832032-51.710938c5.03125 0 9.125 4.09375 9.125 9.125 0 5.027344-4.09375 9.121094-9.125 9.121094s-9.125-4.09375-9.125-9.121094c0-5.03125 4.09375-9.125 9.125-9.125zm-131.285156 54.378906c1.777344-1.78125 4.117188-2.667968 6.453125-2.667968 2.335938 0 4.671875.886718 6.449219 2.667968 1.726562 1.722656 2.675781 4.011719 2.675781 6.449219s-.949219 4.726563-2.675781 6.453125c-1.722656 1.722656-4.015625 2.671875-6.449219 2.671875-2.4375 0-4.730469-.949219-6.453125-2.675781-3.558594-3.554688-3.554687-9.34375 0-12.898438zm-54.378906 131.277344c0-5.03125 4.09375-9.121094 9.125-9.121094s9.125 4.089844 9.125 9.121094-4.09375 9.121094-9.125 9.121094-9.125-4.089844-9.125-9.121094zm67.28125 131.277344c-3.554688 3.5625-9.347656 3.558594-12.902344.003906-3.554687-3.558594-3.558594-9.347656 0-12.902344 1.722656-1.726562 4.015625-2.675781 6.453125-2.675781 2.433594 0 4.726563.949219 6.453125 2.675781 1.722656 1.722656 2.671875 4.011719 2.671875 6.449219s-.949219 4.726563-2.675781 6.449219zm118.382812 54.378906c-5.03125 0-9.125-4.09375-9.125-9.125 0-5.027344 4.09375-9.121094 9.125-9.121094s9.125 4.09375 9.125 9.121094c0 5.03125-4.09375 9.125-9.125 9.125zm131.285157-54.378906c-3.558594 3.558594-9.347657 3.558594-12.902344 0-1.722656-1.722656-2.671875-4.011719-2.671875-6.449219s.949219-4.726563 2.671875-6.453125c1.722656-1.722656 4.015625-2.671875 6.449219-2.671875 2.4375 0 4.730468.949219 6.453125 2.675781 3.558593 3.554688 3.558593 9.34375 0 12.898438zm45.257812-122.15625c-5.03125 0-9.125-4.089844-9.125-9.121094s4.09375-9.121094 9.125-9.121094 9.121094 4.089844 9.121094 9.121094-4.089844 9.121094-9.121094 9.121094zm0 0"/></svg>